# xmcd
#
# Track frame offsets:
#	150
#	49977
#	79526
#	105782
#	138885
#
# Disc length: 2279
#
# Revision: 1
# Processed by: cddbd v1.5.1PL0 Copyright (c) Steve Scherf et al.
# Submitted via: CDex 1.50
# Normalized: r0:TRMNUM
#
DISCID=3008e505
DTITLE=Manfred Schoof - Light Lines
DYEAR=1978
DGENRE=Jazz
TTITLE0=Source
TTITLE1=Light Lines
TTITLE2=Criterium
TTITLE3=Lonesome Defender
TTITLE4=Resonance
EXTD=YEAR: 1978
EXTT0=
EXTT1=
EXTT2=
EXTT3=
EXTT4=
PLAYORDER=
